<svg id="Calque_1" data-name="Calque 1" xmlns="http://www.w3.org/2000/svg" viewBox="0 0 612 792"><defs><style>.cls-1{fill:#fff;}.cls-2{fill:#575756;}.cls-10,.cls-3{fill:#1d1d1b;}.cls-4{fill:#e6332a;}.cls-5{fill:#e56765;}.cls-6{fill:#f4a7aa;}.cls-7{fill:#f0be24;}.cls-8{fill:#b2b2b2;}.cls-9{fill:none;stroke:#fff;stroke-width:4.86px;}.cls-10,.cls-9{stroke-linecap:round;stroke-miterlimit:10;}.cls-10{stroke:#000;stroke-width:2.91px;}</style></defs><title>CFI Logo</title><path class="cls-1" d="M300.87,606.56c-12.24-8.15-32.57-29.61-44.27-43.35l-12.8-15v19.74a72.53,72.53,0,0,0,1.4,12c-28.47-18.55-51.27-47.23-66.16-69.57-20-30-30.85-55.84-31.81-59.46l-0.53-3.56-3.38-1.69a8.78,8.78,0,0,0-4-.94c-1.92,0-5.3,0-8.76,5.62-2.07-28.82,7.2-69.13,18.2-89l1.05-1.9-0.17-2.17c-2-26.27,10.44-37.19,11-37.64L171.29,311l-13.14-3.95a13.92,13.92,0,0,0-4-.51,22.09,22.09,0,0,0-4.25.43c21.25-114.19,130-123.48,143.7-124.19,67.18,0,106.25,26.85,124.66,44.46l-11.55-1.1,17.9,15C445.38,258.6,457,291,462,308.37h-0.36a19.63,19.63,0,0,0-2.29.13l-14.1,1.66,9.59,10.47c7.73,8.44,9.07,16.32,10.37,23.95,0.92,5.41,1.87,11,5.08,16,12.28,21.33,12.77,49,10.28,71.16q-0.57-1.15-1.21-2.24l-12.51-21.37-1,24.74C465,452.35,439.52,487,421,509.11a26.85,26.85,0,0,0-.78-2.89l-6.31-18.92-7.34,18.55c-7.33,18.53-24,36.07-35,46.25q-0.3-.86-0.65-1.77l-6.35-16.16L357.47,550c-8.33,18.73-30.78,30.68-31,30.79l-0.63.33-0.57.46C319.17,586.54,307,597,300.87,606.56Z"/><path d="M293.79,190.07c21.7,0,42.09,3,60.59,8.77a158.33,158.33,0,0,1,40.12,18.86l-10.35-1,35.8,30c16.44,13.79,26.82,38.09,32.48,55.26l-22.15,2.61,19.19,20.93c6.28,6.86,7.34,13.07,8.56,20.26,1,5.79,2.09,12.34,6,18.56,7.2,12.59,10,27.72,10.42,42.45l-13.88-23.71-2,49.48c-0.2,4.82-3.26,19.54-27.36,51.92-2.48,3.33-5,6.54-7.36,9.59l-9.33-28-14.68,37.1c-5.29,13.37-16,26.39-25.49,36.08l-9.39-23.9-14.1,31.73c-6,13.56-22.08,24.32-27.72,27.3l-1.29.67-1.13.92c-0.28.22-6.81,5.52-13.51,12.08-3,3-5.6,5.7-7.78,8.28a217.74,217.74,0,0,1-17.34-16.14c-10.8-11-19.84-21.58-19.93-21.69l-25.59-30.05v36.29c-48.28-38.65-79.12-105.83-82.2-115.43l-1-6.76-6.75-3.38a16.19,16.19,0,0,0-7.2-1.71,17.56,17.56,0,0,0-1.79.09,170.27,170.27,0,0,1,1.69-18.84c3.35-23.41,10.4-43.93,15.9-53.88l2.1-3.81-0.33-4.34c-1.61-20.9,7.06-30.2,8.36-31.47l22.91-16.55-27.93-8.54c-0.39-.12-0.86-0.25-1.41-0.36,23.9-100.19,121.54-109,134.92-109.7m-128.34,135h0m128-149.54c-32.7,1.63-138,22-152.67,143.31,6.44-4.29,11-5,13.41-5a7.07,7.07,0,0,1,1.88.2s-16,12.9-13.58,43.79c-14.26,25.8-28.51,91.31-12.22,119.48,1.6-10.24,5.31-25.29,9.14-25.29a1.56,1.56,0,0,1,.7.17c1,6.79,45.49,107.94,116.43,142.57-5.43-16.63-5.43-26.82-5.43-26.82s37,43.45,53.29,48.54c0.68-9.17,25.46-29.19,25.46-29.19s24.78-12.9,34.28-34.28c3.73,9.5,1.36,13.92,1.36,13.92s35.64-27.49,47.86-58.38c2.72,8.15,0,20.37,0,20.37s58.38-62.8,59.74-95.72c8.15,13.92,6.79,38.36,6.79,38.36s22.74-69.59-3.39-114.73c-6.45-9.84-1.36-24.78-16.29-41.07a12.37,12.37,0,0,1,1.44-.08c5.31,0,10.48,3.15,10.48,3.15s-11.25-56.7-42.82-83.17c6.26,0.6,7.81,2.24,8.09,2.63-1.67-2.57-41.93-62.7-144-62.7h0Zm144,62.7,0.05,0.08-0.05-.08h0Z"/><path class="cls-2" d="M165.6,428.52c5.74,28,50,94.87,60.23,102.43-8.55-21.47-5.71-37.83-5.71-37.83Z"/><path class="cls-2" d="M420.5,280.11c17.1,0.65,32.62,33,32.62,33l22.57,56.65L481.32,396l2.82,21.56-9.87,7.59-9.17,9.34L452.32,463.4l-11.19,23.27L427,496.91l-3.53,8.8-8.33-11.28-10.33,19L393,532.15l-11.85,11.63-8.28,7.05-6-18.68-7.44,13L353.94,559l-22.26,17.88L315.47,550.6l34.59-142Z"/><path class="cls-3" d="M286.65,392.77c0,6.1-1.22,10.59-10.17,13.85C276.48,406.62,286.65,386.67,286.65,392.77Z"/><path class="cls-3" d="M298.05,508.81c-13-40.31-11-81,0-112C293.58,414.76,298.05,508.81,298.05,508.81Z"/><path class="cls-3" d="M331.5,392.16l-1.09-.44a9,9,0,0,1,1.26,1Zm9.1-9.14a42,42,0,0,0-2.62-3.62A33.65,33.65,0,0,0,340.6,383Zm-66.18,3.21c-11,23-5.46,32.5-31.49,37.24,0,0,16.71,22.67,38.64,73.43C276.88,477.45,260.55,420.82,274.41,386.23Zm-37.59-38.68c0.61-6.48,0-4.62,0-4.62s-6.48,2.78-3.09,14.81c9.26,8.63,13.57,11.73,17.28,12s4-1.54,4-1.54C249.77,363.9,238.37,353.11,236.83,347.56Z"/><path class="cls-4" d="M281.56,496.91c-21.93-50.77-38.64-73.43-38.64-73.43,26-4.74,20.53-14.28,31.49-37.24C260.55,420.82,276.88,477.45,281.56,496.91Z"/><path class="cls-5" d="M345,397.63c0.63-4.46-1.1-9.58-4.32-14.54l0-.06a33.65,33.65,0,0,1-2.62-3.62,0,0,0,0,1,0,0,58,58,0,0,0-13.69-12.22c-6.33-4.07-13.25-6.7-19.41-6.7-8.06,0-23.31,10.62-30.45,25.76-13.86,34.58,2.47,91.22,7.15,110.67a491.68,491.68,0,0,1,23.29,61.14,1.39,1.39,0,0,0,2.63.12c2.17-5.43,6.79-17.89,14.56-42.88,18.25-53,20.46-83.81,18-101.42-1.8-13.19-6.2-19-8.4-21.1a9,9,0,0,0-1.26-1l1.09,0.44Zm-68.48,9s10.17-19.95,10.17-13.85S285.43,403.36,276.48,406.62Zm21.58,102.19c-13-40.31-11-81,0-112C293.58,414.76,298.05,508.81,298.05,508.81Z"/><path class="cls-5" d="M286.65,392.77c0,6.1-1.22,10.59-10.17,13.85C276.48,406.62,286.65,386.67,286.65,392.77Z"/><path class="cls-5" d="M298.05,508.81c-13-40.31-11-81,0-112C293.58,414.76,298.05,508.81,298.05,508.81Z"/><path class="cls-5" d="M340.6,383a33.65,33.65,0,0,1-2.62-3.62A42,42,0,0,1,340.6,383Z"/><path class="cls-3" d="M286.65,392.77c0,6.1-1.22,10.59-10.17,13.85C276.48,406.62,286.65,386.67,286.65,392.77Z"/><path class="cls-6" d="M298.05,508.81c-13-40.31-11-81,0-112C293.58,414.76,298.05,508.81,298.05,508.81Z"/><path class="cls-7" d="M356.89,365.76c4.74-3.9,15-13.66,16.44-18.67-0.56-5.85,0-4.18,0-4.18s5.85,2.51,2.79,13.38c-8.36,7.8-12.26,10.59-15.61,10.87S356.89,365.76,356.89,365.76Z"/><path class="cls-4" d="M255,368.23s-0.31,1.85-4,1.54-8-3.4-17.28-12c-3.39-12,3.09-14.81,3.09-14.81s0.61-1.86,0,4.62C238.37,353.11,249.77,363.9,255,368.23Z"/><path class="cls-8" d="M338,379.41A42,42,0,0,1,340.6,383,33.65,33.65,0,0,1,338,379.41Z"/><path class="cls-8" d="M418.89,384.23a6.14,6.14,0,0,1-4.11,7.14l-9.92,3.21-15.79,5.13h0l-16.9,5.48-10.48,3.4c-6.42-2.89-9.56-7.41-5.55-14.52a38.24,38.24,0,0,1,7.25-8.69,25.89,25.89,0,0,1-19.89-19.25c-2,3.73-3.14,6.07-3.14,6.07s-3.1-3.09-7.61-7.12c-3.41-3-7.63-6.6-11.91-9.75-1.9-6.48-3.65-12.38-5.07-17a6.22,6.22,0,0,1,4.21-7.8c5.35-1.55,13.69-4,23-6.68,9.08-2.66,19.11-5.59,28.22-8.3,7.58-2.23,10.57-2.7,27.56-11.74a41.62,41.62,0,0,0,14.79-13.24c4-5.88,6.67-10,7-10.49-0.14.57-1.93,7.61-7.31,19a54.88,54.88,0,0,0-4.71,31.27c1.48,10.38,3.43,22.88,5.18,30.39,0.6,2.63,1.18,5.17,1.73,7.58h0C416.58,373.6,417.95,379.85,418.89,384.23Z"/><path class="cls-3" d="M338,379.41A42,42,0,0,1,340.6,383,33.65,33.65,0,0,1,338,379.41Z"/><path class="cls-3" d="M356.12,394.07a36.25,36.25,0,1,0,14.49-70.21h-0.26c-0.57,0-1.16,0-1.74,0A36.24,36.24,0,0,0,332.36,360a33.91,33.91,0,0,0,.36,5c-3.41-3-7.63-6.6-11.91-9.75-5.3-3.91-10.72-7.16-14.86-8-11.93,2.5-34.38,24.9-34.38,24.9s-17.42-34.86-30.86-49.31c12,19.15,8.3,24.51,8,24.89,0.07-.33.6-3.34-5.52-9.44-16.45-2.41-51.78-58.26-51.78-58.26s5,20.92,25.89,50.3c-2.47,33.87,12.45,55.78,12.45,55.78l-0.49-5s-1-13.95,14.44,0c28.86,23.41,7.16,30-14.4,31.77a5.83,5.83,0,0,0-4.07,9.41c23.91,30.86,67.72,115.78,78.67,146.44a2.19,2.19,0,0,0,4.13,0c11-30.66,54.78-115.58,78.68-146.44a5.84,5.84,0,0,0-4.14-9.42c-7.73-.65-15.48-1.91-20.89-4.35C355.24,405.69,352.11,401.17,356.12,394.07ZM251,369.77c-3.71-.31-8-3.4-17.28-12-3.39-12,3.09-14.81,3.09-14.81s0.61-1.86,0,4.62c1.54,5.55,12.95,16.35,18.19,20.68C255,368.23,254.71,370.08,251,369.77Zm94,27.85-13.45-5.46,0.17,0.61c2.19,2.12,6.6,7.9,8.4,21.1,2.43,17.61.22,48.43-18,101.42-7.77,25-12.39,37.44-14.56,42.88a1.39,1.39,0,0,1-2.63-.12,491.68,491.68,0,0,0-23.29-61.14c-21.93-50.77-38.64-73.43-38.64-73.43,26-4.74,20.53-14.28,31.49-37.24,7.15-15.14,22.39-25.76,30.45-25.76,6.16,0,13.08,2.63,19.41,6.7A58,58,0,0,1,338,379.39a0,0,0,0,0,0,0A42,42,0,0,1,340.6,383l0,0.06C343.85,388.05,345.58,393.16,345,397.63Z"/><circle class="cls-3" cx="325.47" cy="337.94" r="3.77"/><circle class="cls-3" cx="393.04" cy="318.97" r="3.77"/><circle class="cls-3" cx="411.41" cy="384.13" r="3.77"/><path class="cls-4" d="M394.46,360a25.83,25.83,0,0,1-8.53,19.19h0a25,25,0,0,1-3.34,2.54,26,26,0,0,1-19.21,3.59h0a25.89,25.89,0,0,1-19.89-19.25,25.86,25.86,0,0,1,18.32-31h0a23.69,23.69,0,0,1,3.24-.65,26.16,26.16,0,0,1,3.56-.25,25.53,25.53,0,0,1,7,1,25.92,25.92,0,0,1,18,18.53h0A26.11,26.11,0,0,1,394.46,360Z"/><path class="cls-9" d="M366.95,341.71c-7.52,0-16.56,7.2-16.56,15.7"/><path class="cls-9" d="M350.42,365.88c0.08,2.32.76,2.93,0.76,2.93"/><path d="M293.79,190.07c21.7,0,42.09,3,60.59,8.77a158.33,158.33,0,0,1,40.12,18.86l-10.35-1,35.8,30c16.44,13.79,26.82,38.09,32.48,55.26l-22.15,2.61,19.19,20.93c6.28,6.86,7.34,13.07,8.56,20.26,1,5.79,2.09,12.34,6,18.56,7.2,12.59,10,27.72,10.42,42.45l-13.88-23.71-2,49.48c-0.2,4.82-3.26,19.54-27.36,51.92-2.48,3.33-5,6.54-7.36,9.59l-9.33-28-14.68,37.1c-5.29,13.37-16,26.39-25.49,36.08l-9.39-23.9-14.1,31.73c-6,13.56-22.08,24.32-27.72,27.3l-1.29.67-1.13.92c-0.28.22-6.81,5.52-13.51,12.08-3,3-5.6,5.7-7.78,8.28a217.74,217.74,0,0,1-17.34-16.14c-10.8-11-19.84-21.58-19.93-21.69l-25.59-30.05v36.29c-48.28-38.65-79.12-105.83-82.2-115.43l-1-6.76-6.75-3.38a16.19,16.19,0,0,0-7.2-1.71,17.56,17.56,0,0,0-1.79.09,170.27,170.27,0,0,1,1.69-18.84c3.35-23.41,10.4-43.93,15.9-53.88l2.1-3.81-0.33-4.34c-1.61-20.9,7.06-30.2,8.36-31.47l22.91-16.55-27.93-8.54c-0.39-.12-0.86-0.25-1.41-0.36,23.9-100.19,121.54-109,134.92-109.7m-128.34,135h0m128-149.54c-32.7,1.63-138,22-152.67,143.31,6.44-4.29,11-5,13.41-5a7.07,7.07,0,0,1,1.88.2s-16,12.9-13.58,43.79c-14.26,25.8-28.51,91.31-12.22,119.48,1.6-10.24,5.31-25.29,9.14-25.29a1.56,1.56,0,0,1,.7.17c1,6.79,45.49,107.94,116.43,142.57-5.43-16.63-5.43-26.82-5.43-26.82s37,43.45,53.29,48.54c0.68-9.17,25.46-29.19,25.46-29.19s24.78-12.9,34.28-34.28c3.73,9.5,1.36,13.92,1.36,13.92s35.64-27.49,47.86-58.38c2.72,8.15,0,20.37,0,20.37s58.38-62.8,59.74-95.72c8.15,13.92,6.79,38.36,6.79,38.36s22.74-69.59-3.39-114.73c-6.45-9.84-1.36-24.78-16.29-41.07a12.37,12.37,0,0,1,1.44-.08c5.31,0,10.48,3.15,10.48,3.15s-11.25-56.7-42.82-83.17c6.26,0.6,7.81,2.24,8.09,2.63-1.67-2.57-41.93-62.7-144-62.7h0Zm144,62.7,0.05,0.08-0.05-.08h0Z"/><path class="cls-10" d="M223.12,372.44c-20.9-3.63-10.28,52.71-10.28,52.71s-21.5-33.19-10.53-55.34-9.43-10.68-17.55-2.46c6.58-23.64,32.53-37,32.53-37"/><path class="cls-8" d="M341.34,273.11h18.08a3.37,3.37,0,0,1,3.37,3.37V321a0,0,0,0,1,0,0H338a0,0,0,0,1,0,0V276.49A3.37,3.37,0,0,1,341.34,273.11Z" transform="translate(-67.74 106.82) rotate(-15.83)"/><circle class="cls-3" cx="353.86" cy="309.35" r="3.77"/><circle class="cls-3" cx="348.09" cy="288.97" r="3.77"/></svg>