<svg id="Calque_1" data-name="Calque 1" xmlns="http://www.w3.org/2000/svg" viewBox="0 0 612 792"><defs><style>.cls-1,.cls-10{fill:#1d1d1b;}.cls-2{fill:#fff;}.cls-3{fill:#575756;}.cls-4{fill:#e6332a;}.cls-5{fill:#e56765;}.cls-6{fill:#f4a7aa;}.cls-7{fill:#f0be24;}.cls-8{fill:#b2b2b2;}.cls-9{fill:none;stroke:#fff;stroke-width:4.86px;}.cls-10,.cls-9{stroke-linecap:round;stroke-miterlimit:10;}.cls-10{stroke:#000;stroke-width:2.91px;}</style></defs><title>CFI Logo</title><path class="cls-1" d="M123.13,568.4H473a0,0,0,0,1,0,0v174a0,0,0,0,1,0,0H149.91a26.78,26.78,0,0,1-26.78-26.78V568.4A0,0,0,0,1,123.13,568.4Z"/><path class="cls-1" d="M182.78,651.37c-15.16.35-30.49-5.38-42.31-14.61-10.36-8.1-17.38-20.11-17.34-33.49v-93c0.4-14.85,7.17-29.58,16.33-41,10.36-12.94,24.36-24.95,40.72-29.59a395.71,395.71,0,0,1,46.38-11.06c15.21-2.44,32,1,43.57,11.66,11,10.16,18.55,25.08,18.12,40.42q0.09,56.22.19,112.45c0.46,15.44-6.86,30.46-17.41,41.25-10.88,11.13-26.78,16.72-42.14,16.94H182.78Z"/><path class="cls-2" d="M147,502.42c-0.06-8.18,3.4-16.21,9.56-24.09,5.43-6.94,15.09-13.92,23.89-16a438,438,0,0,1,46.35-9.88c9.79-1.54,18.2.67,25.16,6.5s10.46,13.55,10.51,22.86l0.19,33.52c-15.65.79-31.28,2.23-46.83,4.13L215.48,487c-9.32,1.44-14,2.27-23.17,4.12q0.66,52.81,1.31,105.63c9.22-.63,13.84-0.91,23.09-1.41l-0.37-32.5c15.51-1.28,31-2.25,46.59-2.78l0.19,33.52a32.08,32.08,0,0,1-10,23.9,34.54,34.54,0,0,1-24.5,10.12q-23.07.48-46.14,1.18c-9.59.31-17.77-2.42-24.52-7.88s-10.12-12.11-10.19-20.29Z"/><path class="cls-1" d="M261.46,651.37q-0.7-113.6-1.39-227.2c53.92-4.09,105.89,1,157.84,16.14L417,516.54c-4.57-.9-6.86-1.33-11.46-2.14l-0.92,73.75q-23.13-1.77-46.28-2.92l-0.62,66.14H261.46Z"/><path class="cls-2" d="M286.12,447a510,510,0,0,1,106.52,9.72l-0.39,32.12a519.34,519.34,0,0,0-58.63-7.08l-0.26,44.7c15.62,0.79,31.23,2,46.77,3.79l-0.37,32.5c-15.5-1.32-31-2.2-46.59-2.78q-0.19,33.52-.39,67-23.15-.18-46.3-0.15Q286.3,537,286.12,447Z"/><path class="cls-1" d="M376.73,651.37q1.25-110.45,2.5-220.9A432.46,432.46,0,0,1,473,462.21q0,94.58,0,189.16H376.73Z"/><path class="cls-2" d="M404.19,459.39A419.91,419.91,0,0,1,449.33,473Q448.71,551.5,448.08,630q-23-.92-46-1.62Q403.14,543.89,404.19,459.39Z"/><path class="cls-2" d="M300.87,484.67c-12.23-8.15-32.56-29.61-44.27-43.35l-12.8-15V446a72.53,72.53,0,0,0,1.4,12c-28.47-18.55-51.27-47.23-66.16-69.57-20-30-30.85-55.84-31.81-59.46l-0.53-3.56-3.37-1.69a8.78,8.78,0,0,0-4-.94c-1.92,0-5.3,0-8.76,5.62-2.07-28.82,7.2-69.13,18.2-89l1.05-1.9-0.17-2.17c-2-26.27,10.44-37.18,11-37.64l10.63-8.59-13.14-3.95a13.92,13.92,0,0,0-4-.51,22.09,22.09,0,0,0-4.25.43c21.25-114.19,130-123.48,143.7-124.19,67.19,0,106.25,26.86,124.66,44.46l-11.55-1.1,17.9,15c20.77,17.42,32.36,49.78,37.36,67.2h-0.36a19.64,19.64,0,0,0-2.29.13l-14.1,1.66,9.59,10.47c7.73,8.44,9.07,16.32,10.37,23.95,0.92,5.41,1.87,11,5.08,16,12.31,21.38,12.8,49.1,10.31,71.2-0.39-.78-0.8-1.55-1.23-2.29l-12.51-21.37-1,24.74c-0.8,19.46-26.29,54.08-44.81,76.25a26.72,26.72,0,0,0-.78-2.89l-6.31-18.93L406.57,384c-7.31,18.48-24,36-35.05,46.25q-0.3-.86-0.65-1.76l-6.35-16.16-7.05,15.87c-8.33,18.73-30.78,30.68-31,30.79l-0.63.33-0.57.46C319.17,464.65,307,475.08,300.87,484.67Z"/><path d="M293.79,68.17c21.7,0,42.09,3,60.59,8.77a158.34,158.34,0,0,1,40.11,18.86l-10.35-1,35.8,30c16.44,13.79,26.82,38.09,32.48,55.26l-22.15,2.61,19.19,20.93c6.28,6.86,7.34,13.07,8.56,20.26,1,5.79,2.1,12.34,6,18.55,7.2,12.59,10,27.72,10.42,42.45l-13.88-23.71-2,49.48c-0.2,4.82-3.26,19.54-27.36,51.92-2.48,3.33-5,6.54-7.36,9.59l-9.33-28-14.68,37.1c-5.29,13.37-16,26.39-25.49,36.08l-9.39-23.9-14.1,31.73c-6,13.56-22.08,24.32-27.72,27.3l-1.29.67-1.13.92c-0.27.22-6.81,5.52-13.51,12.08-3,3-5.6,5.7-7.78,8.28a217.69,217.69,0,0,1-17.34-16.14c-10.8-11-19.84-21.58-19.93-21.69l-25.59-30.05v36.29c-48.28-38.65-79.12-105.83-82.2-115.43l-1-6.76-6.75-3.38a16.19,16.19,0,0,0-7.2-1.71,17.56,17.56,0,0,0-1.79.09,170.27,170.27,0,0,1,1.69-18.84c3.35-23.41,10.4-43.93,15.9-53.88l2.1-3.81-0.33-4.34c-1.61-20.9,7.06-30.2,8.36-31.47l22.91-16.55-27.93-8.54c-0.39-.12-0.86-0.25-1.41-0.36,23.9-100.19,121.54-109,134.92-109.7m-128.34,135h0m128-149.54c-32.7,1.63-138,22-152.67,143.31,6.44-4.29,11-5,13.41-5a7.07,7.07,0,0,1,1.88.2s-16,12.9-13.58,43.79c-14.26,25.8-28.51,91.31-12.22,119.48,1.6-10.24,5.31-25.29,9.14-25.29a1.56,1.56,0,0,1,.7.17c1,6.79,45.49,107.94,116.43,142.57-5.43-16.63-5.43-26.82-5.43-26.82s37,43.45,53.29,48.54c0.68-9.16,25.46-29.19,25.46-29.19s24.78-12.9,34.28-34.28c3.73,9.5,1.36,13.92,1.36,13.92s35.64-27.49,47.86-58.38c2.72,8.15,0,20.37,0,20.37s58.38-62.8,59.74-95.72c8.15,13.92,6.79,38.36,6.79,38.36S502.6,280,476.46,234.9c-6.45-9.84-1.36-24.78-16.29-41.07a12.34,12.34,0,0,1,1.44-.08c5.31,0,10.48,3.15,10.48,3.15s-11.25-56.7-42.82-83.17c6.26,0.6,7.81,2.24,8.09,2.63-1.67-2.57-41.93-62.7-144-62.7h0Zm144,62.7,0.05,0.08-0.05-.08h0Z"/><path class="cls-3" d="M165.6,306.63c5.74,28,50,94.87,60.23,102.43-8.55-21.47-5.71-37.83-5.71-37.83Z"/><path class="cls-3" d="M420.5,158.21c17.1,0.65,32.62,33,32.62,33l22.57,56.65,5.64,26.19,2.82,21.56-9.87,7.59-9.17,9.34L452.32,341.5l-11.19,23.27L427,375l-3.53,8.8-8.33-11.28-10.33,19L393,410.26l-11.85,11.63-8.28,7.05-6-18.68-7.44,13-5.57,13.85L331.68,455,315.47,428.7l34.59-142Z"/><path class="cls-1" d="M286.65,270.88c0,6.1-1.22,10.59-10.17,13.85C276.48,284.73,286.65,264.78,286.65,270.88Z"/><path class="cls-1" d="M298.05,386.92c-13-40.31-11-81,0-112C293.58,292.86,298.05,386.92,298.05,386.92Z"/><path class="cls-1" d="M331.5,270.27l-1.09-.44a9,9,0,0,1,1.26,1Zm9.1-9.14a42,42,0,0,0-2.62-3.62A33.65,33.65,0,0,0,340.6,261.13Zm-66.18,3.21c-11,23-5.46,32.5-31.49,37.24,0,0,16.71,22.67,38.64,73.43C276.88,355.56,260.55,298.92,274.41,264.34Zm-37.59-38.68c0.61-6.48,0-4.62,0-4.62s-6.48,2.78-3.09,14.81c9.26,8.63,13.57,11.73,17.28,12s4-1.54,4-1.54C249.77,242,238.37,231.21,236.83,225.66Z"/><path class="cls-4" d="M281.56,375c-21.93-50.77-38.64-73.43-38.64-73.43,26-4.74,20.53-14.28,31.49-37.24C260.55,298.92,276.88,355.56,281.56,375Z"/><path class="cls-5" d="M345,275.73c0.63-4.46-1.1-9.58-4.32-14.54l0-.06a33.65,33.65,0,0,1-2.62-3.62,0,0,0,0,1,0,0,58,58,0,0,0-13.69-12.22c-6.33-4.07-13.25-6.7-19.41-6.7-8.06,0-23.31,10.62-30.45,25.76-13.86,34.58,2.47,91.22,7.15,110.67a491.68,491.68,0,0,1,23.29,61.14,1.39,1.39,0,0,0,2.63.12c2.17-5.43,6.79-17.89,14.56-42.88,18.25-53,20.46-83.81,18-101.42-1.8-13.19-6.2-19-8.4-21.1a9,9,0,0,0-1.26-1l1.09,0.44Zm-68.48,9s10.17-19.95,10.17-13.85S285.43,281.47,276.48,284.73Zm21.58,102.19c-13-40.31-11-81,0-112C293.58,292.86,298.05,386.92,298.05,386.92Z"/><path class="cls-5" d="M286.65,270.88c0,6.1-1.22,10.59-10.17,13.85C276.48,284.73,286.65,264.78,286.65,270.88Z"/><path class="cls-5" d="M298.05,386.92c-13-40.31-11-81,0-112C293.58,292.86,298.05,386.92,298.05,386.92Z"/><path class="cls-5" d="M340.6,261.13a33.65,33.65,0,0,1-2.62-3.62A42,42,0,0,1,340.6,261.13Z"/><path class="cls-1" d="M286.65,270.88c0,6.1-1.22,10.59-10.17,13.85C276.48,284.73,286.65,264.78,286.65,270.88Z"/><path class="cls-6" d="M298.05,386.92c-13-40.31-11-81,0-112C293.58,292.86,298.05,386.92,298.05,386.92Z"/><path class="cls-7" d="M356.89,243.87c4.74-3.9,15-13.66,16.44-18.67-0.56-5.85,0-4.18,0-4.18s5.85,2.51,2.79,13.38c-8.36,7.8-12.26,10.59-15.61,10.87S356.89,243.87,356.89,243.87Z"/><path class="cls-4" d="M255,246.34s-0.31,1.85-4,1.54-8-3.4-17.28-12c-3.39-12,3.09-14.81,3.09-14.81s0.61-1.86,0,4.62C238.37,231.21,249.77,242,255,246.34Z"/><path class="cls-8" d="M338,257.51a42,42,0,0,1,2.62,3.62A33.65,33.65,0,0,1,338,257.51Z"/><path class="cls-8" d="M418.89,262.33a6.14,6.14,0,0,1-4.11,7.14l-9.92,3.21-15.79,5.13h0l-16.9,5.48-10.48,3.4c-6.42-2.89-9.56-7.41-5.55-14.52a38.24,38.24,0,0,1,7.25-8.69,25.89,25.89,0,0,1-19.89-19.25c-2,3.73-3.14,6.07-3.14,6.07s-3.1-3.09-7.61-7.12c-3.41-3-7.63-6.6-11.91-9.75-1.9-6.48-3.65-12.38-5.07-17a6.22,6.22,0,0,1,4.21-7.8c5.35-1.55,13.69-4,23-6.68,9.08-2.66,19.11-5.59,28.22-8.3,7.58-2.23,10.57-2.7,27.56-11.74a41.62,41.62,0,0,0,14.79-13.24c4-5.88,6.67-10,7-10.49-0.14.57-1.93,7.61-7.31,19a54.88,54.88,0,0,0-4.71,31.27c1.48,10.38,3.43,22.88,5.18,30.39,0.6,2.63,1.18,5.17,1.73,7.58h0C416.58,251.7,417.95,258,418.89,262.33Z"/><path class="cls-1" d="M338,257.51a42,42,0,0,1,2.62,3.62A33.65,33.65,0,0,1,338,257.51Z"/><path class="cls-1" d="M356.12,272.17A36.25,36.25,0,1,0,370.6,202h-0.26c-0.57,0-1.16,0-1.74,0a36.24,36.24,0,0,0-36.24,36.24,33.91,33.91,0,0,0,.36,5c-3.41-3-7.63-6.6-11.91-9.75-5.3-3.91-10.72-7.16-14.86-8-11.93,2.5-34.38,24.9-34.38,24.9S254.14,215.45,240.7,201c12,19.15,8.3,24.51,8,24.89,0.07-.33.6-3.34-5.52-9.44-16.45-2.41-51.78-58.26-51.78-58.26s5,20.92,25.89,50.3c-2.47,33.87,12.45,55.78,12.45,55.78l-0.49-5s-1-13.95,14.44,0c28.86,23.41,7.16,30-14.4,31.77a5.83,5.83,0,0,0-4.07,9.41c23.91,30.86,67.72,115.78,78.67,146.44a2.19,2.19,0,0,0,4.13,0c11-30.66,54.78-115.58,78.68-146.44a5.84,5.84,0,0,0-4.14-9.42c-7.73-.65-15.48-1.91-20.89-4.35C355.24,283.8,352.11,279.28,356.12,272.17ZM251,247.88c-3.71-.31-8-3.4-17.28-12-3.39-12,3.09-14.81,3.09-14.81s0.61-1.86,0,4.62c1.54,5.55,12.95,16.35,18.19,20.68C255,246.34,254.71,248.18,251,247.88Zm94,27.85-13.45-5.46,0.17,0.61c2.19,2.12,6.6,7.9,8.4,21.1,2.43,17.61.22,48.43-18,101.42-7.77,25-12.39,37.44-14.56,42.88a1.39,1.39,0,0,1-2.63-.12A491.68,491.68,0,0,0,281.56,375c-21.93-50.77-38.64-73.43-38.64-73.43,26-4.74,20.53-14.28,31.49-37.24,7.15-15.14,22.39-25.76,30.45-25.76,6.16,0,13.08,2.63,19.41,6.7A58,58,0,0,1,338,257.5a0,0,0,0,0,0,0,42,42,0,0,1,2.62,3.62l0,0.06C343.85,266.16,345.58,271.27,345,275.73Z"/><circle class="cls-1" cx="325.47" cy="216.05" r="3.77"/><circle class="cls-1" cx="393.04" cy="197.08" r="3.77"/><circle class="cls-1" cx="411.41" cy="262.23" r="3.77"/><path class="cls-4" d="M394.46,238.14a25.83,25.83,0,0,1-8.53,19.19h0a25,25,0,0,1-3.34,2.54,26,26,0,0,1-19.21,3.59h0a25.89,25.89,0,0,1-19.89-19.25,25.86,25.86,0,0,1,18.32-31h0a23.69,23.69,0,0,1,3.24-.65,26.16,26.16,0,0,1,3.56-.25,25.53,25.53,0,0,1,7,1,25.92,25.92,0,0,1,18,18.53h0A26.11,26.11,0,0,1,394.46,238.14Z"/><path class="cls-9" d="M366.95,219.82c-7.52,0-16.56,7.2-16.56,15.7"/><path class="cls-9" d="M350.42,244c0.08,2.32.76,2.93,0.76,2.93"/><path d="M293.79,68.17c21.7,0,42.09,3,60.59,8.77a158.34,158.34,0,0,1,40.11,18.86l-10.35-1,35.8,30c16.44,13.79,26.82,38.09,32.48,55.26l-22.15,2.61,19.19,20.93c6.28,6.86,7.34,13.07,8.56,20.26,1,5.79,2.1,12.34,6,18.55,7.2,12.59,10,27.72,10.42,42.45l-13.88-23.71-2,49.48c-0.2,4.82-3.26,19.54-27.36,51.92-2.48,3.33-5,6.54-7.36,9.59l-9.33-28-14.68,37.1c-5.29,13.37-16,26.39-25.49,36.08l-9.39-23.9-14.1,31.73c-6,13.56-22.08,24.32-27.72,27.3l-1.29.67-1.13.92c-0.27.22-6.81,5.52-13.51,12.08-3,3-5.6,5.7-7.78,8.28a217.69,217.69,0,0,1-17.34-16.14c-10.8-11-19.84-21.58-19.93-21.69l-25.59-30.05v36.29c-48.28-38.65-79.12-105.83-82.2-115.43l-1-6.76-6.75-3.38a16.19,16.19,0,0,0-7.2-1.71,17.56,17.56,0,0,0-1.79.09,170.27,170.27,0,0,1,1.69-18.84c3.35-23.41,10.4-43.93,15.9-53.88l2.1-3.81-0.33-4.34c-1.61-20.9,7.06-30.2,8.36-31.47l22.91-16.55-27.93-8.54c-0.39-.12-0.86-0.25-1.41-0.36,23.9-100.19,121.54-109,134.92-109.7m-128.34,135h0m128-149.54c-32.7,1.63-138,22-152.67,143.31,6.44-4.29,11-5,13.41-5a7.07,7.07,0,0,1,1.88.2s-16,12.9-13.58,43.79c-14.26,25.8-28.51,91.31-12.22,119.48,1.6-10.24,5.31-25.29,9.14-25.29a1.56,1.56,0,0,1,.7.17c1,6.79,45.49,107.94,116.43,142.57-5.43-16.63-5.43-26.82-5.43-26.82s37,43.45,53.29,48.54c0.68-9.16,25.46-29.19,25.46-29.19s24.78-12.9,34.28-34.28c3.73,9.5,1.36,13.92,1.36,13.92s35.64-27.49,47.86-58.38c2.72,8.15,0,20.37,0,20.37s58.38-62.8,59.74-95.72c8.15,13.92,6.79,38.36,6.79,38.36S502.6,280,476.46,234.9c-6.45-9.84-1.36-24.78-16.29-41.07a12.34,12.34,0,0,1,1.44-.08c5.31,0,10.48,3.15,10.48,3.15s-11.25-56.7-42.82-83.17c6.26,0.6,7.81,2.24,8.09,2.63-1.67-2.57-41.93-62.7-144-62.7h0Zm144,62.7,0.05,0.08-0.05-.08h0Z"/><path class="cls-10" d="M223.12,250.55c-20.9-3.63-10.28,52.71-10.28,52.71s-21.5-33.19-10.53-55.34-9.43-10.68-17.55-2.46c6.58-23.64,32.53-37,32.53-37"/><path class="cls-8" d="M341.34,151.22h18.08a3.37,3.37,0,0,1,3.37,3.37v44.55a0,0,0,0,1,0,0H338a0,0,0,0,1,0,0V154.59A3.37,3.37,0,0,1,341.34,151.22Z" transform="translate(-34.5 102.2) rotate(-15.83)"/><circle class="cls-1" cx="353.86" cy="187.46" r="3.77"/><circle class="cls-1" cx="348.09" cy="167.08" r="3.77"/><path class="cls-4" d="M148,648.77h18.23V708h9.12V648.77h18.23V708a13.62,13.62,0,0,1-13.68,13.68H161.65A13.62,13.62,0,0,1,148,708V648.77Z"/><path class="cls-4" d="M202.68,648.77h18.23V708h18.23v13.68H202.68V648.77Z"/><path class="cls-4" d="M248.26,662.45a13.62,13.62,0,0,1,13.68-13.68h18.23a13.62,13.62,0,0,1,13.68,13.68v59.26H275.62V698.92H266.5v22.79H248.26V662.45Zm27.35,0H266.5v22.79h9.12V662.45Z"/><path class="cls-4" d="M303,662.45V648.77H321.2v13.68l4.56,36.47,4.56-36.47V648.77h18.23v13.68l-13.68,59.26H316.64Z"/><path class="cls-4" d="M357.67,662.45a13.62,13.62,0,0,1,13.68-13.68h18.23a13.62,13.62,0,0,1,13.68,13.68v59.26H385V698.92h-9.12v22.79H357.67V662.45Zm27.35,0h-9.12v22.79H385V662.45Z"/><path class="cls-4" d="M412.37,648.77h18.23V708h18.23v13.68H412.37V648.77Z"/></svg>